# xmcd
#
# Track frame offsets: 
#        150
#        9938
#        21009
#        30609
#        40691
#        53219
#        64591
#        77242
#        88313
#        99625
#        111927
#        122902
#        134726
#        144731
#        156760
#        170025
#        181737
#        192810
#        205057
#        215510
#
# Disc length: 2994 seconds
#
# Revision: 1
# Processed by: cddbd v1.5.2PL0 Copyright (c) Steve Scherf et al.
# Submitted via: ExactAudioCopy v0.99pb4
#
DISCID=1a0bb014
DTITLE=Various Artist - Let The Good Times Roll!, Vol. 2
DYEAR=2004
DGENRE=Rock and Roll
TTITLE0=Little Richard - Long Tall Sally
TTITLE1=Lee Dorsey - Ya Ya
TTITLE2=Fats Domino - I'm Walking
TTITLE3=Benny Spellman - Fortune Teller
TTITLE4=The Spiders - Didn't Want To Do It
TTITLE5=Amos Milburn - Chicken Shack Boogie
TTITLE6=Shirley and Lee - Feel So Good
TTITLE7=Bobby Mitchell - I'm Gonna Be A Wheel Someday
TTITLE8=Archibald - Stack-A-Lee
TTITLE9=Earl King - Trick Bag
TTITLE10=Benny Spellman - Lipstick Traces (On A Cigarette)
TTITLE11=Irma Thomas - Cry On
TTITLE12=Ernie K. Doe - I Cried My Last Tear
TTITLE13=Irma Thomas - Ruler Of My Heart
TTITLE14=Clarence "Bon Ton" Garlow - Boon Ton Roulet
TTITLE15=Jewel King - 3 X 7 =21
TTITLE16=Smiley Lewis - One Night
TTITLE17=Smiley Lewis - Blue Monday
TTITLE18=Lloyd Price - Tell Me Pretty Baby
TTITLE19=Fats Domino - Walking To New Orleans
EXTD=
EXTT0=
EXTT1=
EXTT2=
EXTT3=
EXTT4=
EXTT5=
EXTT6=
EXTT7=
EXTT8=
EXTT9=
EXTT10=
EXTT11=
EXTT12=
EXTT13=
EXTT14=
EXTT15=
EXTT16=
EXTT17=
EXTT18=
EXTT19=
PLAYORDER=
